<svg width="387" height="316" viewBox="0 0 387 316" fill="none" xmlns="http://www.w3.org/2000/svg">
<path d="M308.21 195.846C308.21 88.0862 220.853 0.72937 113.093 0.72937C5.33269 0.72937 -82.0242 88.0862 -82.0242 195.846C-82.0242 303.607 5.33269 390.963 113.093 390.963C220.853 390.963 308.21 303.607 308.21 195.846Z" fill="url(#paint0_linear_26_801)"/>
<path d="M108.447 186.555C136.67 186.555 159.549 163.676 159.549 135.453C159.549 107.23 136.67 84.3508 108.447 84.3508C80.2244 84.3508 57.3452 107.23 57.3452 135.453C57.3452 163.676 80.2244 186.555 108.447 186.555Z" fill="#FB6849"/>
<path fill-rule="evenodd" clip-rule="evenodd" d="M100.839 144.744L387 302.32V483.737H-161L-158.41 308.83L100.839 144.744Z" fill="#30243B"/>
<path fill-rule="evenodd" clip-rule="evenodd" d="M96.9015 157.343L113 161.283L111.759 150.83L200.389 199.814H185.354L179 204.494L143.257 184.312L170.73 210.584L163.558 215.866L167.977 227.878L136.082 242.285L103.679 210.18L124.527 213.98L111.326 193.52L143.257 208.366L116.24 184.312L128.403 188.412L96.9015 157.343Z" fill="url(#paint1_linear_26_801)"/>
<path fill-rule="evenodd" clip-rule="evenodd" d="M204.043 210.009L213.701 208.365L309.912 261.8L296.444 275.824L281.601 270.797L290.959 281.562L267.814 305.695L234.318 291.012L253.423 325.398L193.154 282.736L191.551 255.622L176.439 234.996L190.545 238.615L185.722 219.009L207.123 216.738L204.043 210.009Z" fill="url(#paint2_linear_26_801)"/>
<path fill-rule="evenodd" clip-rule="evenodd" d="M77.1473 240.692L107.457 256.82V245.958L170.047 300.988L160.141 278.972L196.708 291.013L232.552 334.154L204.798 338.098L148.645 311.39L176.984 342.051L143.528 346.805L77.1473 287.196V268.245L96.9015 278.972L77.1473 240.692Z" fill="url(#paint3_linear_26_801)"/>
<path fill-rule="evenodd" clip-rule="evenodd" d="M-21.9067 245.863L-24.6746 231.228L6.57668 242.285L37.8279 267.743L6.62639 264.47L-21.9067 245.863Z" fill="url(#paint4_linear_26_801)"/>
<path fill-rule="evenodd" clip-rule="evenodd" d="M-6.99602 286.506L-17.0538 269.987L8.25238 275.926L4.18233 282.625L-6.99602 286.506Z" fill="url(#paint5_linear_26_801)"/>
<path fill-rule="evenodd" clip-rule="evenodd" d="M5.03943 219.799H14.9528L10.3759 210.179L23.7725 216.04L37.8279 227.536L19.7545 232.88L5.03943 219.799Z" fill="url(#paint6_linear_26_801)"/>
<defs>
<linearGradient id="paint0_linear_26_801" x1="-135.17" y1="0.72937" x2="-135.17" y2="497.256" gradientUnits="userSpaceOnUse">
<stop stop-color="#231440"/>
<stop offset="1" stop-color="#685AAB"/>
</linearGradient>
<linearGradient id="paint1_linear_26_801" x1="96.9015" y1="150.83" x2="96.9015" y2="242.285" gradientUnits="userSpaceOnUse">
<stop stop-color="#B6A5C4"/>
<stop offset="1" stop-color="#31253B"/>
</linearGradient>
<linearGradient id="paint2_linear_26_801" x1="176.439" y1="208.365" x2="176.439" y2="325.398" gradientUnits="userSpaceOnUse">
<stop stop-color="#B6A5C4"/>
<stop offset="1" stop-color="#31253B"/>
</linearGradient>
<linearGradient id="paint3_linear_26_801" x1="77.1473" y1="240.692" x2="77.1473" y2="346.805" gradientUnits="userSpaceOnUse">
<stop stop-color="#B6A5C4"/>
<stop offset="1" stop-color="#31253B"/>
</linearGradient>
<linearGradient id="paint4_linear_26_801" x1="-24.6746" y1="231.228" x2="-24.6746" y2="267.743" gradientUnits="userSpaceOnUse">
<stop stop-color="#B6A5C4"/>
<stop offset="1" stop-color="#31253B"/>
</linearGradient>
<linearGradient id="paint5_linear_26_801" x1="-17.0538" y1="269.987" x2="-17.0538" y2="286.506" gradientUnits="userSpaceOnUse">
<stop stop-color="#B6A5C4"/>
<stop offset="1" stop-color="#31253B"/>
</linearGradient>
<linearGradient id="paint6_linear_26_801" x1="5.03943" y1="210.179" x2="5.03943" y2="232.88" gradientUnits="userSpaceOnUse">
<stop stop-color="#B6A5C4"/>
<stop offset="1" stop-color="#31253B"/>
</linearGradient>
</defs>
</svg>
